<svg width="120" height="42" fill="none" xmlns="http://www.w3.org/2000/svg"><g clip-path="url(#a)"><path d="M88.857 3.828a1.891 1.891 0 0 0 1.895-1.887A1.891 1.891 0 0 0 88.857.055a1.891 1.891 0 0 0-1.895 1.886 1.89 1.89 0 0 0 1.895 1.887ZM90.709 27.3c-.01 2.073-1.437 3.756-3.576 3.84-.117.004-.174-.051-.174-.167-.005-6.686-.006-13.372-.004-20.056 0-1.44.164-2.467.493-3.08.596-1.114 1.638-1.775 3.127-1.984a.176.176 0 0 1 .182.101c.01.023.016.048.015.073A4521.99 4521.99 0 0 1 90.71 27.3ZM4.975 9.762c-.447.244-.663.63-.65 1.16.045 1.637.073 3.232.084 4.783a.911.911 0 0 0 .914.907c5.217.009 10.496.009 15.838 0 2.11-.007 3.727.06 4.514 2.006.185.458.278 1.172.278 2.14-.002 2.243-.008 4.484-.017 6.724-.004 1.018-.16 1.777-.465 2.28-.572.938-1.48 1.406-2.723 1.406-5.953-.004-11.907-.006-17.86-.006-1.235 0-2.133-.157-2.696-.47-1.085-.607-1.626-1.644-1.624-3.11 0-.151.076-.227.228-.227h20.349c.268 0 .525-.106.715-.295.19-.189.296-.445.296-.712l-.003-4.763c0-.78-.392-1.17-1.176-1.17l-15.875.003c-1.39 0-2.378-.157-2.963-.473-1.056-.573-1.582-1.554-1.577-2.943.008-2.267.014-4.535.016-6.804 0-1.282.16-2.209.48-2.78.57-1.029 1.523-1.543 2.855-1.543 6.003.002 12.006.006 18.008.01 1.072 0 1.873.149 2.405.447 1.113.624 1.656 1.675 1.627 3.153-.002.122-.065.183-.188.183H5.343a.78.78 0 0 0-.368.094Zm28.649 5.772c.08 1.257.824 1.076 1.772 1.076a7419.44 7419.44 0 0 1 15.718.004c.138 0 .207.069.207.206l.007 3.4c0 .127-.065.19-.194.19H34.475a.913.913 0 0 0-.918.913v4.898c0 .753.379 1.13 1.136 1.13h20.285c.114 0 .17.056.17.17.003 1.504-.53 2.554-1.597 3.15-.587.328-1.618.492-3.094.49L34 31.153c-3.154 0-4.235-1.17-4.235-4.197.004-5.78.008-11.559.01-17.336 0-1.043.153-1.814.458-2.314.59-.96 1.555-1.44 2.897-1.44 6.011.002 12.024.007 18.038.014 2.398.003 4.018 1.043 3.978 3.616-.002.111-.06.167-.17.167H34.541a.942.942 0 0 0-.948.89 41.76 41.76 0 0 0 .03 4.98Zm29.986 1.081h16.745c.103 0 .154.05.154.15v3.487c0 .109-.055.163-.167.163H63.677a.921.921 0 0 0-.927.923v5.084a.932.932 0 0 0 .937.933h20.429c.136 0 .204.068.204.203-.002 1.474-.536 2.515-1.6 3.124-.554.317-1.451.476-2.693.476l-16.374.01c-1.41 0-2.376-.122-2.896-.366-1.517-.707-1.832-2.027-1.832-3.707.003-6.002.001-12.005-.003-18.01-.003-2.233 1.55-3.19 3.656-3.193 5.706-.011 11.411-.017 17.114-.017 1.445.002 2.462.169 3.05.5 1.059.598 1.584 1.631 1.575 3.1-.003.129-.068.193-.198.193H63.76a1.013 1.013 0 0 0-1.01 1.007v5.087a.856.856 0 0 0 .86.853Zm56.327 12.753c0 .474-.189.929-.525 1.264a1.8 1.8 0 0 1-1.269.523H96.364a1.8 1.8 0 0 1-1.269-.523 1.783 1.783 0 0 1-.526-1.264V7.662c0-.474.19-.929.526-1.264a1.799 1.799 0 0 1 1.27-.523h21.778a1.8 1.8 0 0 1 1.269.523c.336.335.525.79.525 1.264v21.706Zm-3.814-10.853a8.808 8.808 0 0 0-2.598-6.244 8.889 8.889 0 0 0-6.272-2.586c-2.352 0-4.608.93-6.272 2.586a8.796 8.796 0 0 0 0 12.488 8.878 8.878 0 0 0 6.272 2.586 8.91 8.91 0 0 0 3.395-.672 8.863 8.863 0 0 0 4.8-4.779 8.79 8.79 0 0 0 .675-3.379Z" fill="#9FC33C"/><path d="M107.254 27.348c4.899 0 8.87-3.954 8.87-8.83 0-4.877-3.971-8.83-8.87-8.83-4.899 0-8.87 3.953-8.87 8.83 0 4.876 3.971 8.83 8.87 8.83Z" fill="#fff"/><path d="m84.819 38.933 1.232-3.196a.282.282 0 0 1 .526-.004l1.252 3.204c.08.206.147.203.201-.01l.787-3.1c.031-.123.11-.184.238-.184l.723-.003a.167.167 0 0 1 .136.068.172.172 0 0 1 .028.152l-1.61 5.713a.252.252 0 0 1-.232.187.255.255 0 0 1-.25-.16l-1.427-3.597c-.08-.2-.16-.2-.238 0l-1.41 3.594a.253.253 0 0 1-.25.161.256.256 0 0 1-.232-.185l-1.614-5.72c-.04-.137.013-.207.157-.21l.677-.006c.158 0 .258.076.298.23l.8 3.056c.058.216.127.22.208.01ZM1.506 37.005c-.1.264.003.512.311.743.56.42 1.614.59 2.16 1.363.804 1.147-.057 2.427-1.326 2.62-.81.125-1.57-.098-2.277-.666-.087-.072-.1-.154-.04-.247l.372-.573a.17.17 0 0 1 .118-.078.17.17 0 0 1 .136.038c.462.386.982.564 1.56.533a.619.619 0 0 0 .549-.407.61.61 0 0 0-.167-.66 3.959 3.959 0 0 0-1.252-.763c-3-1.18-.492-4.75 2.34-2.763.105.073.122.164.05.273l-.36.56a.204.204 0 0 1-.306.043c-.438-.383-1.563-.83-1.868-.016Zm30.274-.191a.596.596 0 0 0 .153.9c.992.58 2.703.993 2.502 2.53-.241 1.833-2.659 1.806-3.838.85-.12-.096-.138-.208-.053-.337l.301-.453c.094-.14.207-.16.338-.057.391.298.826.47 1.306.517a.654.654 0 0 0 .717-.744c-.11-.76-1.464-1.02-2.026-1.5-1.051-.896-.85-2.433.526-2.87.817-.26 1.635-.094 2.454.497.11.08.126.177.05.29l-.318.483a.236.236 0 0 1-.136.096.23.23 0 0 1-.165-.019c-.6-.317-1.346-.733-1.812-.183Zm11.1 2.273.006-3.224c0-.145.073-.218.218-.22h.683c.147-.002.22.071.22.22v5.72a.226.226 0 0 1-.144.21.227.227 0 0 1-.25-.056l-3.42-3.744c-.126-.138-.19-.113-.19.073v3.39c0 .142-.071.214-.214.214h-.677c-.14 0-.21-.07-.21-.21v-5.703a.24.24 0 0 1 .152-.225.241.241 0 0 1 .266.061l3.365 3.567c.13.14.194.115.194-.073Zm10.359 1.57c.753-.45.2-1.283-.395-1.466-1.152-.35-2.37-1.267-1.795-2.607.526-1.234 2.408-1.264 3.345-.59a.535.535 0 0 1-.146.945.54.54 0 0 1-.386-.019c-.513-.22-1.383-.736-1.741.02a.644.644 0 0 0 .321.86c1.008.454 2.74 1.107 2.36 2.587-.421 1.627-2.695 1.697-3.723.79a.52.52 0 0 1 .596-.846c.395.213 1.072.616 1.564.326Zm3.838-3.53a.726.726 0 0 0 .496.764c.894.303 1.888.796 2.22 1.716.29.805.017 1.431-.817 1.88-.994.533-2 .383-3.02-.45-.085-.066-.099-.145-.04-.236l.334-.517c.07-.107.158-.127.268-.06.613.37 1.858 1 2.04-.043a.802.802 0 0 0-.1-.549.814.814 0 0 0-.433-.355c-4.296-1.5-1.099-5.123 1.373-3.283a.532.532 0 0 1-.153.928.54.54 0 0 1-.377-.011c-.495-.21-1.684-.817-1.79.216Zm9.911 2.553-.197-.02a.507.507 0 0 1-.345-.164.496.496 0 0 1 .398-.829l1.33.01c.136 0 .204.069.204.207l.003 2.11a.269.269 0 0 1-.16.247c-2.027.906-3.554.61-4.581-.89-2.056-3.004 1.694-6.234 4.584-4.03.13.1.137.207.023.323l-.472.483a.21.21 0 0 1-.138.063.217.217 0 0 1-.146-.046c-2.11-1.72-4.514 1.483-2.378 3.103.54.409 1.195.489 1.963.24a.414.414 0 0 0 .167-.69.414.414 0 0 0-.255-.116Zm14.817-1.023a3.08 3.08 0 0 1-.908 2.183 3.108 3.108 0 0 1-4.385 0 3.08 3.08 0 0 1 0-4.366 3.109 3.109 0 0 1 4.385 0 3.08 3.08 0 0 1 .908 2.183Zm-1.125 0a1.957 1.957 0 0 0-1.218-1.814 1.98 1.98 0 0 0-2.15.426 1.96 1.96 0 0 0 1.395 3.351 1.982 1.982 0 0 0 1.395-.575 1.962 1.962 0 0 0 .578-1.388ZM6.836 36.8l-.007 1.144a.136.136 0 0 0 .138.137h2.012a.137.137 0 0 1 .137.133l.007.777a.137.137 0 0 1-.134.136l-2.012.004a.138.138 0 0 0-.137.136l-.01 1.224a.136.136 0 0 0 .137.136l2.434.004a.138.138 0 0 1 .137.136l-.01.76a.137.137 0 0 1-.137.137h-3.56a.138.138 0 0 1-.137-.137v-5.75a.136.136 0 0 1 .138-.136h3.57a.138.138 0 0 1 .136.136l-.01.75a.137.137 0 0 1-.137.137H6.973a.137.137 0 0 0-.137.137Zm5.546 1.284h1.972a.17.17 0 0 1 .17.167l.01.703a.17.17 0 0 1-.17.173l-1.979.007a.17.17 0 0 0-.17.17l-.008 1.157a.17.17 0 0 0 .171.17l2.401.006a.167.167 0 0 1 .122.051.169.169 0 0 1 .049.123l-.01.69a.17.17 0 0 1-.17.166h-3.497a.172.172 0 0 1-.17-.17v-5.683a.17.17 0 0 1 .17-.17l3.506-.003a.166.166 0 0 1 .159.107.167.167 0 0 1 .012.066l-.007.687a.17.17 0 0 1-.17.167h-2.391a.17.17 0 0 0-.17.17v1.076a.17.17 0 0 0 .17.17Zm9.599.576c.338.266.7.546.797.983.52 2.3-2.622 2.123-3.918 1.996-.093-.009-.14-.06-.14-.153v-5.643c0-.11.054-.167.164-.174 1.015-.06 1.801-.059 2.357.004 1.4.156 1.962 1.85.744 2.756-.101.076-.102.152-.004.23Zm-2.17-1.837.007 1.193a.157.157 0 0 0 .157.157l.704-.004a.896.896 0 0 0 .578-.207.653.653 0 0 0 .239-.496v-.107a.613.613 0 0 0-.064-.268.706.706 0 0 0-.179-.226.841.841 0 0 0-.267-.15.943.943 0 0 0-.314-.052l-.703.003a.158.158 0 0 0-.158.157Zm.004 2.49v1.14a.213.213 0 0 0 .214.213h.57c.28 0 .549-.077.747-.213.198-.137.31-.321.31-.514v-.113a.534.534 0 0 0-.08-.278.777.777 0 0 0-.23-.236 1.174 1.174 0 0 0-.343-.158 1.474 1.474 0 0 0-.405-.055h-.569a.215.215 0 0 0-.214.214Zm8.512 1.807c-.547.576-1.266.772-2.156.587-2.545-.523-1.915-3.983-1.909-5.883 0-.118.06-.177.178-.177l.807-.006c.12-.003.18.057.18.18-.006 1.273 0 2.543.017 3.81.017 1.063 1.795 1.343 2.307.36.422-.797.181-3.187.191-4.17.002-.116.061-.175.177-.177l.727-.003c.12 0 .187.059.198.176.16 1.49.385 4.147-.717 5.304Zm8.535-5.48h-.837a.14.14 0 0 0-.14.14v5.747c0 .078.063.14.14.14h.837a.14.14 0 0 0 .141-.14v-5.746a.14.14 0 0 0-.14-.14Zm10.159 1.164-.003 1.143a.136.136 0 0 0 .137.137h2.01a.14.14 0 0 1 .095.039.14.14 0 0 1 .042.094l.01.774a.137.137 0 0 1-.138.14h-2.012a.138.138 0 0 0-.137.136l-.01 1.224a.136.136 0 0 0 .137.136l2.438.01a.137.137 0 0 1 .134.137l-.007.76a.137.137 0 0 1-.137.133h-3.56a.137.137 0 0 1-.137-.136l.003-5.75a.136.136 0 0 1 .137-.137l3.563-.003a.139.139 0 0 1 .128.086.14.14 0 0 1 .01.054l-.007.753a.137.137 0 0 1-.137.133h-2.421a.137.137 0 0 0-.138.137Zm26.279 2.6 1.045 1.927a.226.226 0 0 1-.09.307.237.237 0 0 1-.114.03l-.737-.007a.265.265 0 0 1-.248-.153l-1.024-2.027a.55.55 0 0 0-.618-.285.553.553 0 0 0-.427.529l-.01 1.763c-.002.12-.064.179-.184.176l-.724-.003a.208.208 0 0 1-.207-.206v-5.617c0-.098.048-.15.144-.157 1.477-.1 3.338-.313 4.041.747.663 1 .295 2.173-.766 2.72-.117.058-.143.143-.08.256Zm-2.22-2.566v1.386a.174.174 0 0 0 .174.174h1.109c.265 0 .52-.085.708-.237a.736.736 0 0 0 .293-.57v-.12a.736.736 0 0 0-.293-.57 1.134 1.134 0 0 0-.708-.237h-1.109a.174.174 0 0 0-.174.174Z" fill="#9FC33C"/><path d="M19.811 36.816a.158.158 0 0 1 .157-.157l.704-.003c.108 0 .215.017.314.052.1.035.19.086.267.15a.703.703 0 0 1 .18.227.61.61 0 0 1 .063.268v.107a.652.652 0 0 1-.238.495.896.896 0 0 1-.58.208l-.702.003a.158.158 0 0 1-.158-.156l-.007-1.194Zm51.269.021a.174.174 0 0 1 .174-.173h1.108c.266 0 .52.085.708.236a.736.736 0 0 1 .294.57v.12a.737.737 0 0 1-.294.571 1.134 1.134 0 0 1-.707.236h-1.109a.174.174 0 0 1-.174-.173v-1.387Zm7.628 3.777a1.968 1.968 0 0 0 1.972-1.963 1.968 1.968 0 0 0-1.972-1.964c-1.09 0-1.973.88-1.973 1.964s.883 1.963 1.973 1.963Zm-58.893-1.307a.215.215 0 0 1 .214-.213h.57c.139 0 .277.018.405.055.129.036.245.09.344.157a.777.777 0 0 1 .229.236c.053.088.08.183.08.278v.114c0 .192-.112.377-.31.513a1.344 1.344 0 0 1-.748.213h-.57a.215.215 0 0 1-.214-.213v-1.14Z" fill="#fff"/></g><defs><clipPath id="a"><path fill="#fff" transform="translate(.063)" d="M0 0h119.875v42H0z"/></clipPath></defs></svg>